USFL
nRows=370
nColumns=2
inDegrees=yes
endheader
time	tib_ant_r	
3.16008	 42.229963	
3.19334	 42.231143	
3.22661	 42.236897	
3.25987	 42.232704	
3.29314	 42.244370	
3.3264	 42.248812	
3.35966	 42.257078	
3.39293	 42.270768	
3.42619	 42.264436	
3.45946	 42.264702	
3.49272	 42.267078	
3.52598	 42.266597	
3.55925	 42.269436	
3.59251	 42.265274	
3.62578	 42.267407	
3.65904	 42.279218	
3.6923	 42.288268	
3.72557	 42.271982	
3.75883	 42.273778	
3.7921	 42.263623	
3.82536	 42.261047	
3.85862	 42.271445	
3.89189	 42.288095	
3.92515	 42.286373	
3.95842	 42.277701	
3.99168	 42.282022	
4.02494	 42.281951	
4.05821	 42.280437	
4.09147	 42.271164	
4.12474	 42.248678	
4.158	 42.252075	
4.19126	 42.253732	
4.22453	 42.269372	
4.25779	 42.290033	
4.29106	 42.261577	
4.32432	 42.281637	
4.35758	 42.275453	
4.39085	 42.260671	
4.42411	 42.285347	
4.45738	 42.239089	
4.49064	 42.247560	
4.5239	 42.259671	
4.55717	 42.250047	
4.59043	 42.262418	
4.6237	 42.292052	
4.65696	 42.247086	
4.69022	 42.297682	
4.72349	 42.268806	
4.75675	 42.267179	
4.79002	 42.331208	
4.82328	 42.284528	
4.85654	 42.209514	
4.88981	 42.208412	
4.92307	 42.159871	
4.95634	 42.088678	
4.9896	 42.068627	
5.02286	 41.805819	
5.05613	 41.782513	
5.08939	 41.709170	
5.12266	 41.571375	
5.15592	 41.433284	
5.18918	 41.329508	
5.22245	 41.187901	
5.25571	 41.062846	
5.28898	 40.974884	
5.32224	 40.833185	
5.3555	 40.809751	
5.38877	 40.627639	
5.42203	 40.642971	
5.4553	 40.598669	
5.48856	 40.493452	
5.52182	 40.444608	
5.55509	 40.394498	
5.58835	 40.282085	
5.62162	 40.223410	
5.65488	 40.149414	
5.68814	 40.050070	
5.72141	 40.030896	
5.75467	 39.971089	
5.78794	 39.897796	
5.8212	 39.839275	
5.85446	 39.768505	
5.88773	 39.739423	
5.92099	 39.693405	
5.95426	 39.658320	
5.98752	 39.640030	
6.02078	 39.621157	
6.05405	 39.603212	
6.08731	 39.547621	
6.12058	 39.512034	
6.15384	 39.410932	
6.1871	 39.363450	
6.22037	 39.312867	
6.25363	 39.265920	
6.2869	 39.229323	
6.32016	 39.148415	
6.35342	 39.131585	
6.38669	 39.090359	
6.41995	 38.975108	
6.45322	 38.860014	
6.48648	 38.794029	
6.51974	 38.463234	
6.55301	 38.288172	
6.58627	 38.057300	
6.61954	 37.899214	
6.6528	 37.809631	
6.68606	 37.615261	
6.71933	 37.479030	
6.75259	 37.380728	
6.78586	 37.289501	
6.81912	 37.200846	
6.85238	 37.150607	
6.88565	 36.917328	
6.91891	 36.870360	
6.95218	 36.712241	
6.98544	 36.644847	
7.0187	 36.622993	
7.05197	 36.535791	
7.08523	 36.450768	
7.1185	 36.428607	
7.15176	 36.399832	
7.18502	 36.330501	
7.21829	 36.312622	
7.25155	 36.127234	
7.28482	 36.067766	
7.31808	 36.034558	
7.35134	 35.991396	
7.38461	 35.961763	
7.41787	 35.972804	
7.45114	 36.012085	
7.4844	 35.974431	
7.51766	 35.925503	
7.55093	 35.940096	
7.58419	 35.810257	
7.61746	 35.708213	
7.65072	 35.650511	
7.68398	 35.650587	
7.71725	 35.657931	
7.75051	 35.627024	
7.78378	 35.574317	
7.81704	 35.564853	
7.8503	 35.518277	
7.88357	 35.459632	
7.91683	 35.399399	
7.9501	 35.350913	
7.98336	 35.205805	
8.01662	 35.137300	
8.04989	 35.118188	
8.08315	 35.078957	
8.11642	 35.076192	
8.14968	 35.004366	
8.18294	 34.993785	
8.21621	 34.958724	
8.24947	 34.931327	
8.28274	 34.909653	
8.316	 34.907725	
8.34926	 34.883100	
8.38253	 34.852092	
8.41579	 34.821935	
8.44906	 34.826688	
8.48232	 34.807872	
8.51558	 34.792022	
8.54885	 34.800104	
8.58211	 34.777327	
8.61538	 34.759524	
8.64864	 34.762545	
8.6819	 34.737334	
8.71517	 34.710709	
8.74843	 34.686031	
8.7817	 34.643777	
8.81496	 34.640544	
8.84822	 34.627971	
8.88149	 34.642848	
8.91475	 34.622861	
8.94802	 34.626200	
8.98128	 34.600270	
9.01454	 34.560340	
9.04781	 34.554102	
9.08107	 34.553198	
9.11434	 34.543574	
9.1476	 34.538401	
9.18086	 34.531338	
9.21413	 34.540099	
9.24739	 34.521847	
9.28066	 34.528968	
9.31392	 34.531745	
9.34718	 34.523772	
9.38045	 34.521282	
9.41371	 34.512289	
9.44698	 34.498013	
9.48024	 34.492953	
9.5135	 34.487480	
9.54677	 34.517144	
9.58003	 34.509446	
9.6133	 34.503494	
9.64656	 34.511359	
9.67982	 34.495503	
9.71309	 34.490472	
9.74635	 34.483521	
9.77962	 34.488736	
9.81288	 34.469986	
9.84614	 34.494715	
9.87941	 34.529341	
9.91267	 34.544853	
9.94594	 34.560289	
9.9792	 34.623971	
10.0125	 34.664754	
10.0457	 34.682874	
10.079	 34.666905	
10.1123	 34.691270	
10.1455	 34.693850	
10.1788	 34.727421	
10.212	 34.712468	
10.2453	 34.714808	
10.2786	 34.719862	
10.3118	 34.685803	
10.3451	 34.674263	
10.3784	 34.649767	
10.4116	 34.619078	
10.4449	 34.598370	
10.4782	 34.622744	
10.5114	 34.643300	
10.5447	 34.645722	
10.578	 34.624732	
10.6112	 34.652363	
10.6445	 34.677913	
10.6777	 34.648741	
10.711	 34.669175	
10.7443	 34.708846	
10.7775	 34.689864	
10.8108	 34.697546	
10.8441	 34.756812	
10.8773	 34.777731	
10.9106	 34.804827	
10.9439	 34.946479	
10.9771	 35.030720	
11.0104	 35.119724	
11.0436	 35.103249	
11.0769	 35.090207	
11.1102	 35.128919	
11.1434	 35.096490	
11.1767	 35.203236	
11.21	 35.324292	
11.2432	 35.333099	
11.2765	 35.460222	
11.3098	 35.577511	
11.343	 35.700969	
11.3763	 35.825204	
11.4096	 35.811233	
11.4428	 36.037857	
11.4761	 36.158046	
11.5093	 36.251871	
11.5426	 36.356630	
11.5759	 36.519896	
11.6091	 36.602265	
11.6424	 36.678437	
11.6757	 36.800214	
11.7089	 37.077860	
11.7422	 36.944906	
11.7755	 36.926211	
11.8087	 36.818005	
11.842	 36.909892	
11.8752	 37.020065	
11.9085	 37.188407	
11.9418	 37.160192	
11.975	 37.230355	
12.0083	 37.329476	
12.0416	 37.325864	
12.0748	 37.379054	
12.1081	 37.349699	
12.1414	 37.327609	
12.1746	 37.306168	
12.2079	 37.301996	
12.2412	 37.308432	
12.2744	 37.294498	
12.3077	 37.311900	
12.3409	 37.321703	
12.3742	 37.377759	
12.4075	 37.443018	
12.4407	 37.671396	
12.474	 37.705913	
12.5073	 37.736192	
12.5405	 37.803708	
12.5738	 37.850421	
12.6071	 37.885276	
12.6403	 37.948780	
12.6736	 37.962241	
12.7068	 38.007229	
12.7401	 38.069844	
12.7734	 38.084758	
12.8066	 38.154279	
12.8399	 38.182867	
12.8732	 38.169890	
12.9064	 38.204523	
12.9397	 38.216340	
12.973	 38.242719	
13.0062	 38.270524	
13.0395	 38.282301	
13.0728	 38.303513	
13.106	 38.347641	
13.1393	 38.355017	
13.1725	 38.383832	
13.2058	 38.381329	
13.2391	 38.387272	
13.2723	 38.388886	
13.3056	 38.392231	
13.3389	 38.386754	
13.3721	 38.376360	
13.4054	 38.368797	
13.4387	 38.371360	
13.4719	 38.366976	
13.5052	 38.378196	
13.5384	 38.379349	
13.5717	 38.383663	
13.605	 38.386588	
13.6382	 38.393247	
13.6715	 38.398370	
13.7048	 38.400688	
13.738	 38.401351	
13.7713	 38.402768	
13.8046	 38.407147	
13.8378	 38.412783	
13.8711	 38.405295	
13.9044	 38.406691	
13.9376	 38.396756	
13.9709	 38.400963	
14.0041	 38.400471	
14.0374	 38.399190	
14.0707	 38.404338	
14.1039	 38.400724	
14.1372	 38.411766	
14.1705	 38.395737	
14.2037	 38.406383	
14.237	 38.412508	
14.2703	 38.416683	
14.3035	 38.424682	
14.3368	 38.406514	
14.37	 38.409623	
14.4033	 38.423524	
14.4366	 38.418867	
14.4698	 38.430501	
14.5031	 38.425831	
14.5364	 38.415611	
14.5696	 38.401769	
14.6029	 38.391763	
14.6362	 38.375715	
14.6694	 38.384522	
14.7027	 38.385133	
14.736	 38.382947	
14.7692	 38.397660	
14.8025	 38.401952	
14.8357	 38.415267	
14.869	 38.428471	
14.9023	 38.411838	
14.9355	 38.404253	
14.9688	 38.400197	
15.0021	 38.403458	
15.0353	 38.394505	
15.0686	 38.392456	
15.1019	 38.397633	
15.1351	 38.405861	
15.1684	 38.403977	
15.2016	 38.410404	
15.2349	 38.407182	
15.2682	 38.407240	
15.3014	 38.390476	
15.3347	 38.382059	
15.368	 38.379791	
15.4012	 38.361057	
15.4345	 38.333951	
